<svg width="188" height="424" viewBox="0 0 188 424" fill="none" xmlns="http://www.w3.org/2000/svg">
<path d="M146.5 216C146.5 244.995 122.995 268.5 94 268.5C65.0051 268.5 41.5 244.995 41.5 216C41.5 187.005 65.0051 163.5 94 163.5C122.995 163.5 146.5 187.005 146.5 216ZM94 248.5C111.949 248.5 126.5 233.949 126.5 216C126.5 198.051 111.949 183.5 94 183.5C76.0507 183.5 61.5 198.051 61.5 216C61.5 233.949 76.0507 248.5 94 248.5ZM168 2.5C177.665 2.5 185.5 10.335 185.5 20V167C185.5 176.665 177.665 184.5 168 184.5H164.83C158.113 169.418 146.723 156.881 132.5 148.725V77C132.5 65.6782 123.322 56.5 112 56.5H77C65.6782 56.5 56.5 65.6782 56.5 77V148.161C41.8103 156.298 30.0435 169.067 23.1699 184.5H20C10.335 184.5 2.5 176.665 2.5 167V20C2.5 10.335 10.335 2.5 20 2.5H168ZM20 248.5H23.6239C30.555 263.485 42.1286 275.878 56.5 283.839V347C56.5 358.322 65.6782 367.5 77 367.5H112C123.322 367.5 132.5 358.322 132.5 347V283.275C146.408 275.3 157.606 263.136 164.376 248.5H168C177.665 248.5 185.5 256.335 185.5 266V404C185.5 413.665 177.665 421.5 168 421.5H20C10.335 421.5 2.5 413.665 2.5 404V266C2.5 256.335 10.335 248.5 20 248.5Z" fill="url(#paint0_linear_38_30)" stroke="white" stroke-width="5"/>
<defs>
<linearGradient id="paint0_linear_38_30" x1="176" y1="413.5" x2="6.00003" y2="87.5" gradientUnits="userSpaceOnUse">
<stop offset="0.62" stop-color="#4F95FF"/>
<stop offset="1" stop-color="#ADCEFF"/>
</linearGradient>
</defs>
</svg>
